<svg width="36" height="25" viewBox="0 0 36 25" fill="none" xmlns="http://www.w3.org/2000/svg">
<rect x="0.5" y="1.31396" width="34.25" height="23" rx="2.5" fill="#F4B6C7" stroke="#F3F3F3"/>
<path fill-rule="evenodd" clip-rule="evenodd" d="M4.50558 16.2922H3.03906V9.81445H4.50558V16.2922ZM8.16713 9.81445H6.73199C6.73199 11.0065 6.19118 12.1007 5.24827 12.8165L4.67969 13.248L6.88275 16.2925H8.69409L6.66698 13.4911C7.62786 12.5214 8.16713 11.2168 8.16713 9.81445ZM10.508 16.2912H9.12305V9.81641H10.508V16.2912ZM14.6944 11.8123V12.0988C14.3206 11.8404 13.8694 11.6885 13.3828 11.6885C12.0948 11.6885 11.0508 12.7466 11.0508 14.0518C11.0508 15.357 12.0948 16.4151 13.3828 16.4151C13.8694 16.4151 14.3206 16.2632 14.6944 16.0049V16.2911H16.0176V11.8123H14.6944ZM14.6909 14.0521C14.6909 14.6886 14.1541 15.2045 13.4919 15.2045C12.8298 15.2045 12.293 14.6886 12.293 14.0521C12.293 13.4157 12.8298 12.8999 13.4919 12.8999C14.1541 12.8999 14.6909 13.4157 14.6909 14.0521ZM28.6534 12.0988V11.8123H29.9766V16.2911H28.6534V16.0049C28.2796 16.2632 27.8284 16.4151 27.3417 16.4151C26.0538 16.4151 25.0098 15.357 25.0098 14.0518C25.0098 12.7466 26.0538 11.6885 27.3417 11.6885C27.8284 11.6885 28.2796 11.8404 28.6534 12.0988ZM27.4489 15.2045C28.1111 15.2045 28.6479 14.6886 28.6479 14.0521C28.6479 13.4157 28.1111 12.8999 27.4489 12.8999C26.7868 12.8999 26.25 13.4157 26.25 14.0521C26.25 14.6886 26.7868 15.2045 27.4489 15.2045ZM30.5508 15.5442C30.5508 15.0794 30.9225 14.7026 31.3811 14.7026C31.8397 14.7026 32.2115 15.0794 32.2115 15.5442C32.2115 16.0088 31.8397 16.3856 31.3811 16.3856C30.9225 16.3856 30.5508 16.0088 30.5508 15.5442ZM22.6573 11.6914C22.1287 11.6914 21.6285 11.8577 21.2941 12.3165V11.8121H19.9766V16.2907H21.3102V13.9371C21.3102 13.256 21.7609 12.9225 22.3035 12.9225C22.885 12.9225 23.2194 13.2745 23.2194 13.9278V16.2907H24.541V13.4425C24.541 12.4002 23.7233 11.6914 22.6573 11.6914ZM18.0637 11.8115V12.3949C18.329 12.045 18.8232 11.8118 19.3605 11.8118V13.1151L19.3532 13.1148C19.3504 13.1146 19.3477 13.1145 19.3448 13.1145C18.8213 13.1145 18.0667 13.4937 18.0667 14.1992V16.2903H16.709V11.8115H18.0637Z" fill="#17120F"/>
</svg>
