<svg width="36" height="25" viewBox="0 0 36 25" fill="none" xmlns="http://www.w3.org/2000/svg">
<rect x="1" y="1.31396" width="34.25" height="23" rx="2.5" fill="white" stroke="#F3F3F3"/>
<path d="M21.3535 18.1997H15.0625V7.12109H21.3535V18.1997Z" fill="#FF5F00"/>
<path d="M15.4649 12.6598C15.4649 10.4125 16.5388 8.41064 18.211 7.12056C16.9881 6.17719 15.4448 5.61413 13.7676 5.61413C9.79685 5.61413 6.57812 8.76855 6.57812 12.6598C6.57812 16.5511 9.79685 19.7056 13.7676 19.7056C15.4448 19.7056 16.9881 19.1425 18.211 18.1991C16.5388 16.909 15.4649 14.9072 15.4649 12.6598Z" fill="#EB001B"/>
<path d="M29.8364 12.6598C29.8364 16.5511 26.6177 19.7056 22.647 19.7056C20.9697 19.7056 19.4264 19.1425 18.2031 18.1991C19.8758 16.909 20.9496 14.9072 20.9496 12.6598C20.9496 10.4125 19.8758 8.41064 18.2031 7.12056C19.4264 6.17719 20.9697 5.61413 22.647 5.61413C26.6177 5.61413 29.8364 8.76855 29.8364 12.6598Z" fill="#F79E1B"/>
</svg>
