<svg width="35" height="25" viewBox="0 0 35 25" fill="none" xmlns="http://www.w3.org/2000/svg">
<rect x="0.5" y="1.31396" width="33.7586" height="23" rx="2.5" fill="white" stroke="#F3F3F3"/>
<path fill-rule="evenodd" clip-rule="evenodd" d="M15.8443 12.9675L15.9956 12.0024L15.6585 11.9945H14.0488L15.1675 4.8728C15.171 4.85124 15.1822 4.83122 15.1987 4.81698C15.2152 4.80273 15.2363 4.79492 15.2583 4.79492H17.9725C18.8736 4.79492 19.4954 4.98315 19.82 5.35473C19.9722 5.52904 20.0692 5.71125 20.1161 5.91168C20.1653 6.12205 20.1661 6.37335 20.1181 6.6799L20.1147 6.7022V6.89865L20.2669 6.98524C20.395 7.05351 20.4969 7.13164 20.575 7.22107C20.7052 7.37016 20.7894 7.55961 20.825 7.78413C20.8618 8.01509 20.8496 8.28998 20.7894 8.60118C20.7199 8.95908 20.6077 9.27084 20.456 9.52588C20.3166 9.76091 20.139 9.95589 19.928 10.1069C19.7266 10.2505 19.4873 10.3594 19.2168 10.4292C18.9546 10.4977 18.6557 10.5323 18.3278 10.5323H18.1166C17.9656 10.5323 17.8189 10.5869 17.7037 10.6848C17.5882 10.7847 17.5119 10.9213 17.4885 11.0706L17.4725 11.1575L17.2051 12.8586L17.193 12.921C17.1898 12.9408 17.1843 12.9506 17.1762 12.9573C17.1689 12.9634 17.1586 12.9675 17.1484 12.9675H15.8443Z" fill="#28356A"/>
<path fill-rule="evenodd" clip-rule="evenodd" d="M20.4097 6.7251C20.4016 6.7771 20.3923 6.83024 20.382 6.88484C20.024 8.73003 18.7994 9.36747 17.2355 9.36747H16.4392C16.2479 9.36747 16.0867 9.50687 16.0569 9.69632L15.5338 13.0284C15.5144 13.1528 15.6099 13.2649 15.7348 13.2649H17.1472C17.3144 13.2649 17.4565 13.1429 17.4829 12.9773L17.4967 12.9053L17.7626 11.2109L17.7797 11.1179C17.8058 10.9518 17.9482 10.8297 18.1154 10.8297H18.3266C19.695 10.8297 20.7662 10.2719 21.0793 8.65768C21.21 7.98338 21.1424 7.42032 20.7963 7.02433C20.6916 6.90495 20.5616 6.80583 20.4097 6.7251Z" fill="#298FC2"/>
<path fill-rule="evenodd" clip-rule="evenodd" d="M20.037 6.57527C19.9823 6.55924 19.9258 6.54476 19.868 6.53166C19.8098 6.51888 19.7502 6.50757 19.6888 6.49764C19.4741 6.46281 19.2389 6.44629 18.9869 6.44629H16.8595C16.8071 6.44629 16.7573 6.45817 16.7128 6.47965C16.6147 6.52702 16.5418 6.62028 16.5241 6.73445L16.0716 9.6125L16.0586 9.6964C16.0883 9.50695 16.2495 9.36755 16.4408 9.36755H17.2371C18.8011 9.36755 20.0257 8.72978 20.3836 6.88492C20.3943 6.83032 20.4033 6.77718 20.4113 6.72517C20.3208 6.67692 20.2227 6.63566 20.1171 6.6005C20.091 6.59179 20.0641 6.58341 20.037 6.57527Z" fill="#22284F"/>
<path fill-rule="evenodd" clip-rule="evenodd" d="M16.5241 6.73434C16.5417 6.62016 16.6146 6.5269 16.7127 6.47987C16.7576 6.4583 16.807 6.44642 16.8594 6.44642H18.9868C19.2388 6.44642 19.4741 6.46302 19.6888 6.49785C19.7501 6.5077 19.8097 6.51909 19.8679 6.53187C19.9258 6.54489 19.9822 6.55946 20.0369 6.57541C20.064 6.58354 20.0909 6.59201 20.1173 6.60039C20.2229 6.63555 20.321 6.67713 20.4116 6.72506C20.5181 6.04319 20.4107 5.57892 20.0435 5.15852C19.6387 4.69563 18.9081 4.49756 17.9732 4.49756H15.2589C15.068 4.49756 14.9051 4.63696 14.8756 4.82674L13.7451 12.0217C13.7228 12.164 13.8321 12.2924 13.9751 12.2924H15.6507L16.5241 6.73434Z" fill="#28356A"/>
<path fill-rule="evenodd" clip-rule="evenodd" d="M7.84611 14.9268H5.86718C5.73174 14.9268 5.61657 15.0256 5.59541 15.1598L4.79504 20.2548C4.77915 20.3554 4.85672 20.446 4.95827 20.446H5.903C6.03844 20.446 6.15361 20.3472 6.17476 20.2127L6.3906 18.8385C6.41143 18.704 6.52685 18.6052 6.66204 18.6052H7.28848C8.59201 18.6052 9.34433 17.9718 9.54087 16.7168C9.62938 16.1676 9.5446 15.7362 9.28848 15.4341C9.00724 15.1023 8.50837 14.9268 7.84611 14.9268ZM8.07555 16.7876C7.96735 17.5005 7.42479 17.5005 6.90023 17.5005H6.60156L6.81108 16.169C6.82356 16.0885 6.89294 16.0293 6.97399 16.0293H7.11088C7.46824 16.0293 7.80533 16.0293 7.9795 16.2338C8.08341 16.3558 8.11518 16.5371 8.07555 16.7876Z" fill="#28356A"/>
<path fill-rule="evenodd" clip-rule="evenodd" d="M13.8142 16.7262H12.8665C12.7858 16.7262 12.716 16.7855 12.7036 16.866L12.6616 17.1321L12.5954 17.0356C12.3903 16.7367 11.9327 16.6367 11.4762 16.6367C10.4289 16.6367 9.53455 17.4331 9.36037 18.5502C9.26983 19.1074 9.39854 19.6403 9.71342 20.0118C10.0022 20.3535 10.4154 20.4959 10.907 20.4959C11.7508 20.4959 12.2186 19.9511 12.2186 19.9511L12.1764 20.2155C12.1605 20.3166 12.2381 20.4072 12.3391 20.4072H13.1926C13.3284 20.4072 13.443 20.3085 13.4644 20.1739L13.9765 16.9174C13.9927 16.8171 13.9154 16.7262 13.8142 16.7262ZM12.4945 18.5779C12.4031 19.1214 11.9735 19.4863 11.4254 19.4863C11.1502 19.4863 10.9303 19.3977 10.7891 19.2298C10.649 19.063 10.5958 18.8257 10.6403 18.5613C10.7258 18.0224 11.1626 17.6455 11.7023 17.6455C11.9714 17.6455 12.1902 17.7354 12.3343 17.9046C12.4786 18.0758 12.5359 18.3146 12.4945 18.5779Z" fill="#28356A"/>
<path fill-rule="evenodd" clip-rule="evenodd" d="M18.7863 16.8071H17.834C17.7431 16.8071 17.6578 16.8525 17.6063 16.9283L16.2929 18.8707L15.7362 17.0041C15.7012 16.8873 15.5938 16.8071 15.4723 16.8071H14.5365C14.4227 16.8071 14.3438 16.9187 14.3799 17.0262L15.4289 20.1168L14.4428 21.5146C14.3652 21.6247 14.4433 21.776 14.5773 21.776H15.5284C15.6187 21.776 15.7032 21.7319 15.7544 21.6576L18.9217 17.0671C18.9976 16.9574 18.9197 16.8071 18.7863 16.8071Z" fill="#28356A"/>
<path fill-rule="evenodd" clip-rule="evenodd" d="M21.9632 14.9268H19.984C19.8489 14.9268 19.7338 15.0256 19.7126 15.1598L18.9122 20.2548C18.8963 20.3554 18.9739 20.446 19.0749 20.446H20.0905C20.1848 20.446 20.2655 20.3769 20.2803 20.2827L20.5075 18.8385C20.5283 18.704 20.6438 18.6052 20.7789 18.6052H21.4051C22.7089 18.6052 23.4609 17.9718 23.6577 16.7168C23.7466 16.1676 23.6612 15.7362 23.4051 15.4341C23.1241 15.1023 22.6256 14.9268 21.9632 14.9268ZM22.1924 16.7876C22.0845 17.5005 21.5419 17.5005 21.017 17.5005H20.7188L20.9285 16.169C20.9409 16.0885 21.0098 16.0293 21.0911 16.0293H21.228C21.585 16.0293 21.9224 16.0293 22.0966 16.2338C22.2005 16.3558 22.232 16.5371 22.1924 16.7876Z" fill="#298FC2"/>
<path fill-rule="evenodd" clip-rule="evenodd" d="M27.9262 16.7257H26.9791C26.8978 16.7257 26.8287 16.785 26.8165 16.8655L26.7745 17.1316L26.708 17.0352C26.5029 16.7362 26.0456 16.6362 25.589 16.6362C24.5418 16.6362 23.6478 17.4326 23.4736 18.5497C23.3833 19.1069 23.5114 19.6398 23.8262 20.0113C24.1157 20.353 24.5282 20.4954 25.0199 20.4954C25.8636 20.4954 26.3315 19.9506 26.3315 19.9506L26.2893 20.215C26.2734 20.3161 26.3509 20.4068 26.4525 20.4068H27.3058C27.4409 20.4068 27.5561 20.308 27.5773 20.1734L28.0897 16.9169C28.1053 16.8166 28.0277 16.7257 27.9262 16.7257ZM26.6057 18.5779C26.5148 19.1214 26.0845 19.4863 25.5365 19.4863C25.2619 19.4863 25.0414 19.3977 24.9001 19.2298C24.7602 19.063 24.7075 18.8257 24.7514 18.5613C24.8374 18.0224 25.2737 17.6455 25.8134 17.6455C26.0825 17.6455 26.3013 17.7354 26.4454 17.9046C26.5903 18.0758 26.6476 18.3146 26.6057 18.5779Z" fill="#298FC2"/>
<path fill-rule="evenodd" clip-rule="evenodd" d="M28.9647 15.0668L28.1525 20.255C28.1366 20.3556 28.2141 20.4462 28.3151 20.4462H29.1316C29.2674 20.4462 29.3825 20.3475 29.4033 20.213L30.2043 15.1182C30.2202 15.0177 30.1427 14.9268 30.0417 14.9268H29.1273C29.0466 14.927 28.9772 14.9863 28.9647 15.0668Z" fill="#298FC2"/>
</svg>
