<svg width="35" height="25" viewBox="0 0 35 25" fill="none" xmlns="http://www.w3.org/2000/svg">
<rect x="0.5" y="1.31396" width="33.5" height="23" rx="2.5" fill="white" stroke="#F3F3F3"/>
<path d="M15.3164 17.274H13.0195L14.4562 8.87354H16.753L15.3164 17.274Z" fill="#15195A"/>
<path d="M23.644 9.07883C23.191 8.90886 22.4724 8.72119 21.5839 8.72119C19.3156 8.72119 17.7183 9.86502 17.7085 11.5003C17.6897 12.7069 18.8521 13.377 19.7215 13.7793C20.6102 14.1904 20.9123 14.4587 20.9123 14.8252C20.9032 15.3879 20.1942 15.6473 19.5329 15.6473C18.6159 15.6473 18.1245 15.5136 17.3778 15.2005L17.0753 15.0663L16.7539 16.952C17.2926 17.1841 18.2851 17.3901 19.3156 17.3991C21.7257 17.3991 23.2947 16.2729 23.3133 14.5302C23.3225 13.574 22.7087 12.8412 21.3853 12.2425C20.5819 11.8581 20.0899 11.5989 20.0899 11.2057C20.0994 10.8481 20.5061 10.4819 21.4129 10.4819C22.1596 10.464 22.7083 10.6337 23.1239 10.8036L23.3317 10.8928L23.644 9.07883Z" fill="#15195A"/>
<path fill-rule="evenodd" clip-rule="evenodd" d="M27.7568 8.87354H29.5335L31.3865 17.2738H29.2598C29.2598 17.2738 29.0517 16.3087 28.9857 16.0137H26.0367C25.9514 16.237 25.5546 17.2738 25.5546 17.2738H23.1445L26.5563 9.57052C26.7927 9.02533 27.2089 8.87354 27.7568 8.87354ZM27.6162 11.9478C27.6162 11.9478 26.8884 13.8156 26.6992 14.2982H28.6084C28.5139 13.8782 28.079 11.8674 28.079 11.8674L27.9185 11.1436C27.8509 11.3299 27.7531 11.5862 27.6872 11.759C27.6425 11.8762 27.6124 11.955 27.6162 11.9478Z" fill="#15195A"/>
<path fill-rule="evenodd" clip-rule="evenodd" d="M3.06906 8.87354H6.76457C7.26548 8.89123 7.67193 9.04315 7.8042 9.57967L8.60756 13.4404C8.60728 13.4397 8.60701 13.439 8.60673 13.4383C8.60692 13.4389 8.6071 13.4395 8.60728 13.4401L8.85309 14.6018L11.1025 8.87354H13.5313L9.92097 17.265H7.49204L5.44475 9.96564C4.73847 9.57521 3.93243 9.26119 3.03125 9.04327L3.06906 8.87354Z" fill="#15195A"/>
</svg>
